<svg width="512" height="512" viewBox="0 0 512 512" fill="none" xmlns="http://www.w3.org/2000/svg">
<path d="M256 42.6667C185.056 42.6667 128 99.7227 128 170.667C128 262.048 242.837 402.304 249.429 411.371C252.101 415.019 259.899 415.019 262.571 411.371C269.163 402.304 384 262.048 384 170.667C384 99.7227 326.944 42.6667 256 42.6667ZM256 224C225.632 224 200.533 198.901 200.533 168.533C200.533 138.165 225.632 113.067 256 113.067C286.368 113.067 311.467 138.165 311.467 168.533C311.467 198.901 286.368 224 256 224Z" fill="#1DC9C9"/>
<text x="256" y="469.333" font-family="Arial, sans-serif" font-size="80" font-weight="bold" fill="#1DC9C9" text-anchor="middle">ViajaFácil</text>
</svg>